<?xml version="1.0" encoding="utf-8"?>
<!-- Generator: Adobe Illustrator 22.1.0, SVG Export Plug-In . SVG Version: 6.00 Build 0)  -->
<svg version="1.1" id="Layer_1" xmlns="http://www.w3.org/2000/svg" xmlns:xlink="http://www.w3.org/1999/xlink" x="0px" y="0px"
	 viewBox="0 0 3840 2160" style="enable-background:new 0 0 3840 2160;" xml:space="preserve">
<style type="text/css">
	.st0{fill:#FFFFFF;}
	.st1{fill:#149ADD;}
	.st2{fill:#6FD89E;}
	.st3{fill:#3232CC;}
	.st4{fill-rule:evenodd;clip-rule:evenodd;fill:#FFFFFF;}
	.st5{fill-rule:evenodd;clip-rule:evenodd;fill:#3232CC;}
</style>
<g>
	<g>
		<g>
			<g>
				<g>
					<g>
						<g>
							<polygon class="st0" points="2408.5,1253.2 2007,806.3 2007,694.6 2408.5,247.7 3209.6,247.7 3611,694.6 3611,806.3 
								3209.6,1253.2 							"/>
						</g>
					</g>
				</g>
				<g>
					<g>
						<g>
							<path class="st1" d="M3206,255.7l397,442v105.6l-397,442h-794l-397-442V697.7l397-442H3206 M3213.2,239.7h-7.1h-794h-7.1
								l-4.8,5.3l-397,442l-4.1,4.6v6.1v105.6v6.1l4.1,4.6l397,442l4.8,5.3h7.1h794h7.1l4.8-5.3l397-442l4.1-4.6v-6.1V697.7v-6.1
								l-4.1-4.6l-397-442L3213.2,239.7L3213.2,239.7z"/>
						</g>
					</g>
				</g>
			</g>
			<g>
				<g>
					<path class="st1" d="M3206,255.7l397,442v105.6l-397,442h-794l-397-442V697.7l397-442H3206 M3209.6,247.7h-3.6h-794h-3.6
						l-2.4,2.7l-397,442l-2,2.3v3.1v105.6v3.1l2,2.3l397,442l2.4,2.7h3.6h794h3.6l2.4-2.7l397-442l2-2.3v-3.1V697.7v-3.1l-2-2.3
						l-397-442L3209.6,247.7L3209.6,247.7z"/>
				</g>
			</g>
			<g>
				<g>
					<line class="st0" x1="2809" y1="750.5" x2="2809" y2="750.5"/>
				</g>
				<g>
					<path class="st1" d="M2809,750.5"/>
				</g>
			</g>
			<g>
				<g>
					<g>
						<line class="st2" x1="2809" y1="750.5" x2="2809" y2="750.5"/>
					</g>
					<g>
						<path class="st1" d="M2809,750.5"/>
					</g>
				</g>
			</g>
			<g>
				<g>
					<g>
						<path class="st0" d="M2410.2,1143.6l-400.6-446l400.6-446h797.6l400.6,446l-400.6,446H2410.2z M3173.9,1067.5l332.2-369.8
							l-332.2-369.8h-729.7L2112,697.7l332.2,369.8H3173.9z"/>
					</g>
				</g>
				<g>
					<g>
						<path class="st1" d="M3206,255.7l397,442l-397,442h-794l-397-442l397-442H3206 M2442.4,1071.5h733.3l335.8-373.8l-335.8-373.8
							h-733.3l-335.8,373.8L2442.4,1071.5 M3209.6,247.7h-3.6h-794h-3.6l-2.4,2.7l-397,442l-4.8,5.3l4.8,5.3l397,442l2.4,2.7h3.6
							h794h3.6l2.4-2.7l397-442l4.8-5.3l-4.8-5.3l-397-442L3209.6,247.7L3209.6,247.7z M2446,331.8h726.1l328.6,365.8l-328.6,365.8
							H2446l-328.6-365.8L2446,331.8L2446,331.8z"/>
					</g>
				</g>
			</g>
			<g>
				<g>
					<g>
						<rect x="2406.9" y="1143" class="st1" width="8" height="105.6"/>
					</g>
				</g>
				<g>
					<g>
						<rect x="3203.1" y="1143" class="st1" width="8" height="105.6"/>
					</g>
				</g>
			</g>
		</g>
	</g>
	<g>
		<g>
			<g>
				<polygon class="st0" points="2169.4,909.2 2084.5,815.3 1506.3,1016.1 1506.3,1046.9 1591.2,1140.7 2169.4,940 				"/>
				<path class="st3" d="M1590,1145.4l-87.7-96.9v-35.2l583.5-202.6l87.7,96.9v35.2L1590,1145.4z M1510.3,1045.3l82.1,90.7
					l573.1-199v-26.4l-82.1-90.7l-573.1,199V1045.3z"/>
			</g>
			<g>
				<path class="st3" d="M1588.8,1150l-90.5-100.1v-39.6L2086.9,806l90.5,100.1v39.6L1588.8,1150z M1514.3,1043.8l79.3,87.6
					l567.9-197.1v-22l-79.3-87.6l-567.9,197.1V1043.8z"/>
			</g>
			<g>
				<polygon class="st0" points="2084.5,815.3 1506.3,1016.1 1591.2,1109.9 2169.4,909.2 				"/>
				<path class="st3" d="M1590,1114.6l-90.7-100.3l586.5-203.6l90.7,100.3L1590,1114.6z M1513.3,1017.9l79.1,87.4l570.1-197.9
					l-79.1-87.4L1513.3,1017.9z"/>
			</g>
		</g>
	</g>
	<g>
		<g>
			<g>
				<polygon class="st0" points="2331.4,1091.2 2246.5,997.3 1668.3,1198.1 1668.3,1228.9 1753.2,1322.7 2331.4,1122 				"/>
				<path class="st1" d="M1752,1327.4l-87.7-96.9v-35.2l2.7-0.9l580.8-201.6l87.7,96.9v35.2l-2.7,0.9L1752,1327.4z M1672.3,1227.3
					l82.1,90.7l573.1-199v-26.4l-82.1-90.7l-573.1,199V1227.3z"/>
			</g>
			<g>
				<path class="st1" d="M1750.8,1332l-90.5-100.1v-39.6L2248.9,988l90.5,100.1v39.6L1750.8,1332z M1676.3,1225.8l79.3,87.6
					l567.9-197.1v-22l-79.3-87.6l-567.9,197.1V1225.8z"/>
			</g>
			<g>
				<polygon class="st0" points="2246.5,997.3 1668.3,1198.1 1753.2,1291.9 2331.4,1091.2 				"/>
				<path class="st1" d="M1752,1296.6l-90.7-100.3l586.5-203.6l90.7,100.3L1752,1296.6z M1675.3,1199.9l79.1,87.4l570.1-197.9
					l-79.1-87.4L1675.3,1199.9z"/>
			</g>
		</g>
	</g>
	<g>
		<g>
			<g>
				<g>
					<g>
						<g>
							<polygon class="st0" points="630.4,1908.9 229,1462 229,1350.3 630.4,903.4 1431.5,903.4 1833,1350.3 1833,1462 
								1431.5,1908.9 							"/>
						</g>
					</g>
				</g>
				<g>
					<g>
						<g>
							<path class="st3" d="M1428,911.4l397,442v105.6l-397,442H634h0l-397-442v-105.6l397-442H1428 M1435.1,895.4h-7.1H634h-7.1
								l-4.8,5.3l-397,442l-4.1,4.6v6.1v105.6v6.1l4.1,4.6l397,442l4.8,5.3h7.1h794h7.1l4.8-5.3l397-442l4.1-4.6v-6.1v-105.6v-6.1
								l-4.1-4.6l-397-442L1435.1,895.4L1435.1,895.4z"/>
						</g>
					</g>
				</g>
			</g>
			<g>
				<g>
					<path class="st3" d="M1428,911.4l397,442v105.6l-397,442H634l-397-442v-105.6l397-442H1428 M1431.5,903.4h-3.6H634h-3.6
						L628,906l-397,442l-2,2.3v3.1v105.6v3.1l2,2.3l397,442l2.4,2.7h3.6h794h3.6l2.4-2.7l397-442l2-2.3v-3.1v-105.6v-3.1l-2-2.3
						l-397-442L1431.5,903.4L1431.5,903.4z"/>
				</g>
			</g>
			<g>
				<g>
					<line class="st0" x1="1031" y1="1406.1" x2="1031" y2="1406.1"/>
				</g>
				<g>
					<path class="st3" d="M1031,1406.1"/>
				</g>
			</g>
			<g>
				<g>
					<g>
						<line class="st2" x1="1031" y1="1406.1" x2="1031" y2="1406.1"/>
					</g>
					<g>
						<path class="st3" d="M1031,1406.1"/>
					</g>
				</g>
			</g>
			<g>
				<g>
					<g>
						<path class="st0" d="M632.2,1799.3l-400.6-446l400.6-446h797.6l400.6,446l-400.6,446H632.2z M1395.8,1723.2l332.2-369.8
							l-332.2-369.8H666.1l-332.2,369.8l332.2,369.8H1395.8z"/>
					</g>
				</g>
				<g>
					<g>
						<path class="st3" d="M1428,911.4l397,442l-397,442H634l-397-442l397-442H1428 M664.3,1727.2h733.3l335.8-373.8l-335.8-373.8
							H664.3l-335.8,373.8L664.3,1727.2 M1431.5,903.4h-3.6H634h-3.6L628,906l-397,442l-4.8,5.3l4.8,5.3l397,442l2.4,2.7h3.6h794
							h3.6l2.4-2.7l397-442l4.8-5.3l-4.8-5.3l-397-442L1431.5,903.4L1431.5,903.4z M667.9,987.5H1394l328.6,365.8L1394,1719.2H667.9
							l-328.6-365.8L667.9,987.5L667.9,987.5z"/>
					</g>
				</g>
			</g>
			<g>
				<g>
					<g>
						<rect x="628.9" y="1798.7" class="st3" width="8" height="105.6"/>
					</g>
				</g>
				<g>
					<g>
						<rect x="1425.1" y="1798.7" class="st3" width="8" height="105.6"/>
					</g>
				</g>
			</g>
		</g>
	</g>
	<g>
		<path class="st1" d="M2800,806.7c-8.8,0-17.7-0.3-26.6-0.8c-9-0.6-16.8-1.7-23.5-3.5V640.8c3.5-0.6,7.3-1.2,11.3-1.8
			c4-0.6,8.1-1,12.2-1.3c4.2-0.3,8.3-0.6,12.4-0.7c4.1-0.2,8-0.2,11.6-0.2c10.1,0,19.4,0.8,28.1,2.3c8.6,1.5,16.1,4,22.4,7.6
			c6.3,3.5,11.2,8.2,14.8,13.9c3.5,5.8,5.3,12.9,5.3,21.4c0,7.8-1.9,14.6-5.6,20.2c-3.8,5.6-9,10.1-15.7,13.4
			c10.1,3.4,17.5,8.3,22.3,14.9c4.8,6.6,7.2,14.9,7.2,25c0,17.1-6.2,30-18.7,38.5C2844.9,802.4,2825.8,806.7,2800,806.7z
			 M2779.6,706.1h21.4c11.5,0,20.6-1.6,27.1-4.9c6.6-3.3,9.8-9.2,9.8-17.6c0-8-3.4-13.7-10.2-17c-6.8-3.4-15.6-5-26.5-5
			c-4.6,0-8.8,0.1-12.4,0.2c-3.6,0.2-6.7,0.4-9.2,0.7V706.1z M2779.6,729.9v50.6c3.4,0.3,7,0.6,10.8,0.7c3.8,0.2,7.4,0.2,10.6,0.2
			c6.2,0,12-0.4,17.4-1.2c5.4-0.8,10-2.2,13.9-4.2c3.9-2,7-4.7,9.4-8c2.3-3.4,3.5-7.7,3.5-13c0-9.4-3.4-16-10.3-19.7
			c-6.9-3.7-16.4-5.5-28.6-5.5H2779.6z"/>
	</g>
	<g>
		<path class="st3" d="M1079.2,1443.8c-2.2-6.6-4.6-13-7-19.4c-2.4-6.4-4.7-13-7-19.7H995c-2.2,6.7-4.5,13.3-6.9,19.8
			c-2.3,6.5-4.6,12.9-6.9,19.3h-31.4c6.2-17.8,12.1-34.2,17.7-49.2c5.6-15,11.1-29.3,16.4-42.7s10.7-26.2,15.9-38.4
			c5.3-12.2,10.7-24.2,16.3-36h28.9c5.6,11.8,11,23.8,16.3,36c5.3,12.2,10.6,25,16,38.4s10.9,27.7,16.6,42.7
			c5.7,15,11.6,31.4,17.9,49.2H1079.2z M1030.2,1309.6c-3.7,8.5-7.9,18.8-12.6,31c-4.7,12.2-9.6,25.4-14.8,39.6h54.7
			c-5.1-14.2-10.1-27.5-14.9-39.8C1037.8,1328,1033.7,1317.8,1030.2,1309.6z"/>
	</g>
</g>
</svg>
